<?xml version="1.0" standalone="no"?>
<!DOCTYPE svg PUBLIC "-//W3C//DTD SVG 20010904//EN"
 "http://www.w3.org/TR/2001/REC-SVG-20010904/DTD/svg10.dtd">
<svg version="1.0" xmlns="http://www.w3.org/2000/svg"
 width="1024.000000pt" height="1024.000000pt" viewBox="0 0 1024.000000 1024.000000"
 preserveAspectRatio="xMidYMid meet">
<metadata>
Created by potrace 1.14, written by Peter Selinger 2001-2017
</metadata>
<g transform="translate(0.000000,1024.000000) scale(0.100000,-0.100000)"
fill="#000000" stroke="none">
<path d="M4910 10233 c-933 -42 -1816 -326 -2590 -831 -290 -189 -522 -376
-777 -626 -271 -265 -470 -504 -677 -816 -156 -233 -225 -354 -347 -605 -282
-581 -437 -1144 -500 -1815 -17 -174 -17 -666 0 -840 40 -429 116 -803 241
-1181 78 -236 143 -394 259 -634 251 -516 544 -932 945 -1342 261 -268 501
-467 808 -673 1382 -925 3117 -1122 4673 -530 897 341 1699 948 2277 1724 572
767 909 1661 999 2651 25 278 13 741 -27 1055 -109 862 -451 1709 -972 2406
-217 291 -542 638 -802 854 -573 477 -1187 804 -1895 1010 -499 145 -1098 217
-1615 193z m500 -1673 c107 -39 794 -287 1525 -552 732 -264 1359 -494 1395
-510 83 -39 203 -158 242 -240 61 -124 58 -27 58 -1873 0 -1847 4 -1727 -59
-1862 -23 -47 -51 -85 -100 -132 -65 -63 -142 -106 -1582 -893 -833 -454
-1533 -836 -1556 -847 -95 -47 -212 -62 -323 -41 -37 7 -135 55 -334 164
-2085 1141 -2790 1528 -2826 1551 -67 42 -132 115 -172 191 -73 139 -68 7 -68
1849 0 1168 3 1677 11 1728 15 94 40 157 95 233 56 80 112 127 199 169 69 33
3007 1102 3109 1130 95 27 168 15 386 -65z"/>
<path d="M3638 7562 c-808 -295 -1468 -539 -1468 -542 0 -3 662 -244 1470
-537 l1470 -532 1465 532 c806 292 1465 534 1465 537 0 5 -2853 1055 -2915
1073 -13 4 -552 -188 -1487 -531z"/>
<path d="M7620 6289 c-256 -93 -841 -305 -1300 -470 -459 -166 -859 -310 -887
-321 l-53 -19 0 -1594 0 -1593 723 394 c397 218 1007 551 1355 741 l632 345 0
1344 c0 739 -1 1344 -2 1343 -2 0 -212 -77 -468 -170z"/>
</g>
</svg>
